<svg xmlns="http://www.w3.org/2000/svg" version="1.1" xmlns:xlink="http://www.w3.org/1999/xlink" xmlns:svgjs="http://svgjs.dev/svgjs" width="1440" height="560" preserveAspectRatio="none" viewBox="0 0 1440 560"><g mask="url(&quot;#SvgjsMask1075&quot;)" fill="none"><rect width="1440" height="560" x="0" y="0" fill="rgba(0, 205, 255, 1)"></rect><path d="M0,346.494C76.101,355.502,157.384,386.104,225.204,350.425C293.931,314.269,317.811,230.457,352.571,161.014C388.616,89.004,449.629,16.436,431.679,-62.066C413.745,-140.499,324.407,-175.741,263.539,-228.357C211.917,-272.98,166.327,-324.577,101.923,-347.118C35.421,-370.393,-35.115,-366.904,-104.916,-357.312C-184.929,-346.317,-270.845,-340.489,-331.81,-287.515C-395.981,-231.755,-448.005,-148.528,-442.852,-63.672C-437.796,19.595,-352.981,70.843,-305.868,139.685C-268.097,194.877,-248.767,263.42,-193.364,300.88C-137.369,338.74,-67.124,338.549,0,346.494" fill="#0085a6"></path><path d="M1440 1170.354C1552.7069999999999 1173.7820000000002 1639.788 1079.438 1734.297 1017.935 1828.2269999999999 956.809 1926.685 903.377 1991.134 811.6949999999999 2064.533 707.281 2131.936 588.909 2125.491 461.44100000000003 2118.834 329.76599999999996 2057.712 196.70600000000002 1955.812 113.04599999999999 1858.657 33.28099999999995 1722.084 31.873000000000047 1596.47 27.11099999999999 1494.048 23.227999999999952 1397.38 52.06900000000002 1301.478 88.23899999999998 1212.083 121.95499999999998 1131.355 167.47699999999998 1058.968 229.834 976.1700000000001 301.159 888.926 372.608 851.976 475.455 810.834 589.969 781.144 727.762 842.277 832.971 903.208 937.832 1051.372 940.762 1156.987 1000.376 1254.801 1055.587 1327.732 1166.9389999999999 1440 1170.354" fill="#59dfff"></path></g><defs><mask id="SvgjsMask1075"><rect width="1440" height="560" fill="#ffffff"></rect></mask></defs></svg>